0
SECTION
2
HEADER
9
$INSUNITS
70
4
9
$ACADVER
1
AC1014
9
$HANDSEED
5
FFFF
0
ENDSEC
0
SECTION
2
TABLES
0
TABLE
2
VPORT
5
8
100
AcDbSymbolTable
0
ENDTAB
0
TABLE
2
LTYPE
5
5
100
AcDbSymbolTable
0
LTYPE
5
14
100
AcDbSymbolTableRecord
100
AcDbLinetypeTableRecord
2
BYBLOCK
70
0
0
LTYPE
5
15
100
AcDbSymbolTableRecord
100
AcDbLinetypeTableRecord
2
BYLAYER
70
0
0
ENDTAB
0
TABLE
2
LAYER
5
2
100
AcDbSymbolTable
70
2
0
LAYER
5
50
100
AcDbSymbolTableRecord
100
AcDbLayerTableRecord
2
0
70
0
6
CONTINUOUS
0
ENDTAB
0
TABLE
2
STYLE
5
3
100
AcDbSymbolTable
70
1
0
STYLE
5
11
100
AcDbSymbolTableRecord
100
AcDbTextStyleTableRecord
2
STANDARD
70
0
0
ENDTAB
0
TABLE
2
VIEW
5
6
100
AcDbSymbolTable
70
0
0
ENDTAB
0
TABLE
2
UCS
5
7
100
AcDbSymbolTable
70
0
0
ENDTAB
0
TABLE
2
APPID
5
9
100
AcDbSymbolTable
70
2
0
APPID
5
12
100
AcDbSymbolTableRecord
100
AcDbRegAppTableRecord
2
ACAD
70
0
0
ENDTAB
0
TABLE
2
DIMSTYLE
5
A
100
AcDbSymbolTable
70
1
0
ENDTAB
0
TABLE
2
BLOCK_RECORD
5
1
100
AcDbSymbolTable
70
1
0
BLOCK_RECORD
5
1F
100
AcDbSymbolTableRecord
100
AcDbBlockTableRecord
2
*MODEL_SPACE
0
BLOCK_RECORD
5
1B
100
AcDbSymbolTableRecord
100
AcDbBlockTableRecord
2
*PAPER_SPACE
0
ENDTAB
0
ENDSEC
0
SECTION
2
BLOCKS
0
BLOCK
5
20
100
AcDbEntity
100
AcDbBlockBegin
2
*MODEL_SPACE
0
ENDBLK
5
21
100
AcDbEntity
100
AcDbBlockEnd
0
BLOCK
5
1C
100
AcDbEntity
100
AcDbBlockBegin
2
*PAPER_SPACE
0
ENDBLK
5
1D
100
AcDbEntity
100
AcDbBlockEnd
0
ENDSEC
0
SECTION
2
ENTITIES
0
LWPOLYLINE
5
100
100
AcDbEntity
8
0
100
AcDbPolyline
90
4
70
1
43
0.0
10
-22.499999918000011
20
-104.99999955300001
10
-22.499999918000011
20
-114.99999970200001
10
-25.499999962700013
20
-114.99999970200001
10
-25.499999962700013
20
-104.99999955300001
0
LWPOLYLINE
5
101
100
AcDbEntity
8
0
100
AcDbPolyline
90
4
70
1
43
0.0
10
-22.499999918000011
20
-84.999999404000022
10
-22.499999918000007
20
-94.999999553000009
10
-25.499999962700009
20
-94.999999553000009
10
-25.499999962700013
20
-84.999999404000022
0
LWPOLYLINE
5
102
100
AcDbEntity
8
0
100
AcDbPolyline
90
4
70
1
43
0.0
10
-25.499999962700013
20
-144.99999985100001
10
-22.499999918000011
20
-144.99999985100001
10
-22.499999918000007
20
-155
10
-25.499999962700013
20
-155
0
LWPOLYLINE
5
103
100
AcDbEntity
8
0
100
AcDbPolyline
90
4
70
1
43
0.0
10
-25.499999962699992
20
-64.999999255000034
10
-22.499999918
20
-64.999999255000034
10
-22.499999918
20
-74.999999404000022
10
-25.499999962699999
20
-74.999999404000022
0
LWPOLYLINE
5
104
100
AcDbEntity
8
0
100
AcDbPolyline
90
4
70
1
43
0.0
10
-25.499999962700013
20
-124.99999970200001
10
-22.499999918000011
20
-124.99999970200001
10
-22.499999918000011
20
-134.99999985100001
10
-25.499999962700013
20
-134.99999985100001
0
LWPOLYLINE
5
105
100
AcDbEntity
8
0
100
AcDbPolyline
90
4
70
1
43
0.0
10
-25.499999962700052
20
-24.999998957000038
10
-22.499999918000032
20
-24.999998957000038
10
-22.499999918000032
20
-34.999999106000033
10
-25.499999962699999
20
-34.999999106000033
0
LWPOLYLINE
5
106
100
AcDbEntity
8
0
100
AcDbPolyline
90
4
70
1
43
0.0
10
-25.499999962700013
20
-4.9999988080000435
10
-22.499999918000043
20
-4.9999988080000435
10
-22.499999918000032
20
-14.999998957000038
10
-25.499999962699999
20
-14.999998957000038
0
LWPOLYLINE
5
107
100
AcDbEntity
8
0
100
AcDbPolyline
90
4
70
1
43
0.0
10
22.499999918000011
20
-114.99999970200001
10
22.499999918000011
20
-104.99999955300001
10
25.499999962700013
20
-104.99999955300001
10
25.499999962700013
20
-114.99999970200001
0
LWPOLYLINE
5
108
100
AcDbEntity
8
0
100
AcDbPolyline
90
4
70
1
43
0.0
10
22.499999918000011
20
-14.999998957000038
10
22.499999918000029
20
-4.9999988080000435
10
25.499999962700002
20
-4.9999988080000435
10
25.499999962699995
20
-14.999998957000038
0
LWPOLYLINE
5
109
100
AcDbEntity
8
0
100
AcDbPolyline
90
4
70
1
43
0.0
10
25.499999962700013
20
-24.999998957000038
10
25.499999962699995
20
-34.999999106000033
10
22.499999918000029
20
-34.999999106000033
10
22.499999918000029
20
-24.999998957000038
0
LWPOLYLINE
5
110
100
AcDbEntity
8
0
100
AcDbPolyline
90
4
70
1
43
0.0
10
22.499999918000011
20
-84.999999404000022
10
25.499999962700013
20
-84.999999404000022
10
25.499999962700013
20
-94.999999553000009
10
22.499999918000011
20
-94.999999553000009
0
LWPOLYLINE
5
111
100
AcDbEntity
8
0
100
AcDbPolyline
90
4
70
1
43
0.0
10
22.499999918
20
-64.999999255000034
10
25.499999962699995
20
-64.999999255000034
10
25.499999962700002
20
-74.999999404000022
10
22.499999918
20
-74.999999404000022
0
LWPOLYLINE
5
112
100
AcDbEntity
8
0
100
AcDbPolyline
90
4
70
1
43
0.0
10
25.499999962700002
20
-54.999999255000027
10
22.499999918000011
20
-54.999999255000027
10
22.499999918
20
-44.999999106000033
10
25.499999962699967
20
-44.999999106000033
0
LWPOLYLINE
5
113
100
AcDbEntity
8
0
100
AcDbPolyline
90
4
70
1
43
0.0
10
22.499999918000011
20
-155
10
22.499999918000011
20
-144.99999985100001
10
25.499999962700013
20
-144.99999985100001
10
25.499999962700013
20
-155
0
LWPOLYLINE
5
114
100
AcDbEntity
8
0
100
AcDbPolyline
90
4
70
1
43
0.0
10
22.499999918000011
20
-134.99999985100001
10
22.499999918000011
20
-124.99999970200001
10
25.499999962700013
20
-124.99999970200001
10
25.499999962700013
20
-134.99999985100001
0
LWPOLYLINE
5
115
100
AcDbEntity
8
0
100
AcDbPolyline
90
4
70
1
43
0.0
10
-25.499999962699896
20
-44.999999106000033
10
-22.499999917999993
20
-44.999999106000033
10
-22.499999917999997
20
-54.999999255000027
10
-25.499999962700002
20
-54.999999255000027
0
LWPOLYLINE
5
116
100
AcDbEntity
8
0
100
AcDbPolyline
90
4
70
1
43
0.0
10
-27.999999999999993
20
0
10
-28.000000000000011
20
-160
10
28.000000000000004
20
-160
10
27.999999999999989
20
0
0
ENDSEC
0
SECTION
2
OBJECTS
0
DICTIONARY
5
C
100
AcDbDictionary
3
ACAD_GROUP
350
D
3
ACAD_MLINESTYLE
350
17
0
DICTIONARY
5
D
100
AcDbDictionary
0
DICTIONARY
5
1A
330
C
100
AcDbDictionary
0
DICTIONARY
5
17
100
AcDbDictionary
0
ENDSEC
0
EOF
