0
SECTION
2
HEADER
9
$INSUNITS
70
4
9
$ACADVER
1
AC1014
9
$HANDSEED
5
FFFF
0
ENDSEC
0
SECTION
2
TABLES
0
TABLE
2
VPORT
5
8
100
AcDbSymbolTable
0
ENDTAB
0
TABLE
2
LTYPE
5
5
100
AcDbSymbolTable
0
LTYPE
5
14
100
AcDbSymbolTableRecord
100
AcDbLinetypeTableRecord
2
BYBLOCK
70
0
0
LTYPE
5
15
100
AcDbSymbolTableRecord
100
AcDbLinetypeTableRecord
2
BYLAYER
70
0
0
ENDTAB
0
TABLE
2
LAYER
5
2
100
AcDbSymbolTable
70
2
0
LAYER
5
50
100
AcDbSymbolTableRecord
100
AcDbLayerTableRecord
2
0
70
0
6
CONTINUOUS
0
ENDTAB
0
TABLE
2
STYLE
5
3
100
AcDbSymbolTable
70
1
0
STYLE
5
11
100
AcDbSymbolTableRecord
100
AcDbTextStyleTableRecord
2
STANDARD
70
0
0
ENDTAB
0
TABLE
2
VIEW
5
6
100
AcDbSymbolTable
70
0
0
ENDTAB
0
TABLE
2
UCS
5
7
100
AcDbSymbolTable
70
0
0
ENDTAB
0
TABLE
2
APPID
5
9
100
AcDbSymbolTable
70
2
0
APPID
5
12
100
AcDbSymbolTableRecord
100
AcDbRegAppTableRecord
2
ACAD
70
0
0
ENDTAB
0
TABLE
2
DIMSTYLE
5
A
100
AcDbSymbolTable
70
1
0
ENDTAB
0
TABLE
2
BLOCK_RECORD
5
1
100
AcDbSymbolTable
70
1
0
BLOCK_RECORD
5
1F
100
AcDbSymbolTableRecord
100
AcDbBlockTableRecord
2
*MODEL_SPACE
0
BLOCK_RECORD
5
1B
100
AcDbSymbolTableRecord
100
AcDbBlockTableRecord
2
*PAPER_SPACE
0
ENDTAB
0
ENDSEC
0
SECTION
2
BLOCKS
0
BLOCK
5
20
100
AcDbEntity
100
AcDbBlockBegin
2
*MODEL_SPACE
0
ENDBLK
5
21
100
AcDbEntity
100
AcDbBlockEnd
0
BLOCK
5
1C
100
AcDbEntity
100
AcDbBlockBegin
2
*PAPER_SPACE
0
ENDBLK
5
1D
100
AcDbEntity
100
AcDbBlockEnd
0
ENDSEC
0
SECTION
2
ENTITIES
0
LWPOLYLINE
5
100
100
AcDbEntity
8
0
100
AcDbPolyline
90
8
70
1
43
0.0
10
145.00000216072326
20
29.000000001395726
10
145.00000216072326
20
18.000000001395758
10
18.000000223523234
20
18.000000001395762
42
0.41421356237309592
10
15.000000223523225
20
15.000000001395762
10
15.000000223523227
20
6.00000000139576
10
10.000000149023229
20
6.00000000139576
10
10.000000149023997
20
26.000000001395733
42
-0.4142135623730957
10
13.000000149024007
20
29.000000001395744
0
LWPOLYLINE
5
101
100
AcDbEntity
8
0
100
AcDbPolyline
90
56
70
1
43
0.0
10
160
20
17.000000001395748
10
160
20
40
10
0
20
40
10
0
20
0
10
5.0000000744999973
20
1.3957590638824513e-09
10
5.0000000744999973
20
-4.9999999986048227
42
0.4142135623730947
10
6.0000000744999991
20
-5.99999999860482
10
14.000000223523212
20
-5.9999999986048191
42
0.41421356237309764
10
15.000000223523225
20
-4.9999999986048174
10
15.000000223517418
20
1.3957590638824513e-09
10
25.00000037252903
20
1.3957590638824513e-09
10
25.000000372523221
20
-4.9999999986053956
42
0.41421356237309459
10
26.000000372523232
20
-5.9999999986053982
10
34.000000521546454
20
-5.9999999986054053
42
0.41421356237309503
10
35.000000521546461
20
-4.9999999986053991
10
35.000000521540642
20
1.3951773070175477e-09
10
45.000000670552254
20
1.3957590638824513e-09
10
45.000000670558066
20
-4.9999999986054
42
0.41421356237309492
10
46.000000670558066
20
-5.9999999986053965
10
54.000000819581274
20
-5.9999999986053965
42
0.41421356237309764
10
55.000000819581281
20
-4.9999999986053991
10
55.000000819581288
20
1.3951773070175477e-09
10
65.000000968575478
20
1.3957590638824513e-09
10
65.00000096858129
20
-4.9999999986054
42
0.41421356237309492
10
66.000000968581276
20
-5.9999999986053965
10
74.000001117604498
20
-5.9999999986053965
42
0.41421356237309503
10
75.000001117604498
20
-4.9999999986053991
10
75.000001117604498
20
1.3951773070175477e-09
10
85.000001266598701
20
1.3957590638824513e-09
10
85.0000012666045
20
-4.9999999986054
42
0.41421356237309492
10
86.000001266604485
20
-5.9999999986053965
10
94.000001415627722
20
-5.9999999986053965
42
0.41421356237309503
10
95.000001415627722
20
-4.9999999986053991
10
95.000001415627722
20
1.3951773070175477e-09
10
105.00000156462193
20
1.3957590638824513e-09
10
105.00000156462772
20
-4.9999999986054
42
0.41421356237309492
10
106.00000156462769
20
-5.9999999986053787
10
114.00000171365092
20
-5.9999999986053965
42
0.41421356237309503
10
115.0000017136509
20
-4.9999999986053991
10
115.0000017136509
20
1.3951773070175477e-09
10
125.00000181676512
20
1.3957590638824513e-09
10
125.00000181676512
20
-4.9999999986363575
42
0.41421356237309437
10
126.00000181676501
20
-5.9999999986362447
10
134.00000196578821
20
-5.9999999986362473
42
0.41421356238230111
10
135.00000196578821
20
-4.9999999986048174
10
135.00000117427331
20
1.3957590638824513e-09
10
144.99999985097676
20
1.3957590638824513e-09
10
144.99999985097679
20
-4.9999999986048005
42
0.4142135623730957
10
145.99999985097679
20
-5.9999999986047818
10
154
20
-5.9999999986048147
42
0.41421356237309503
10
155
20
-4.9999999986048165
10
155
20
1.3957590638824513e-09
10
160
20
1.3957590638824513e-09
10
160
20
7.0000000013957475
10
170
20
7.0000000013957475
10
170
20
17.000000001395748
0
ENDSEC
0
SECTION
2
OBJECTS
0
DICTIONARY
5
C
100
AcDbDictionary
3
ACAD_GROUP
350
D
3
ACAD_MLINESTYLE
350
17
0
DICTIONARY
5
D
100
AcDbDictionary
0
DICTIONARY
5
1A
330
C
100
AcDbDictionary
0
DICTIONARY
5
17
100
AcDbDictionary
0
ENDSEC
0
EOF
